# xmcd
#
# Track frame offsets: 
#        150
#        16252
#        33556
#        54333
#        74244
#        90021
#        105980
#        124787
#        142246
#        161669
#        177783
#        194657
#
# Disc length: 2864 seconds
#
# Revision: 0
# Processed by: cddbd v1.5.2PL0 Copyright (c) Steve Scherf et al.
# Submitted via: ExactAudioCopyFreeDBPlugin 1.0
#
DISCID=a30b2e0c
DTITLE=Johnny Gill - Game Changer
DYEAR=2014
DGENRE=R&B
TTITLE0=Your Body
TTITLE1=Behind Closed Doors
TTITLE2=This One's For Me and You (feat. New Edition)
TTITLE3=What Is This
TTITLE4=Game Changer
TTITLE5=5000 Miles
TTITLE6=You Choose Me
TTITLE7=Strung Out
TTITLE8=Role Play
TTITLE9=Gonna Cost
TTITLE10=Can't Keep My Hands Off of You
TTITLE11=Guinevere
EXTD=
EXTT0=
EXTT1=
EXTT2=
EXTT3=
EXTT4=
EXTT5=
EXTT6=
EXTT7=
EXTT8=
EXTT9=
EXTT10=
EXTT11=
PLAYORDER=
